<?xml version="1.0" encoding="UTF-8"?>
<svg width="670px" height="503px" viewBox="0 0 670 503" version="1.1" xmlns="http://www.w3.org/2000/svg" xmlns:xlink="http://www.w3.org/1999/xlink">
    <!-- Generator: Sketch 53.2 (72643) - https://sketchapp.com -->
    <title>img/no-image-car</title>
    <desc>Created with Sketch.</desc>
    <g id="img/no-image-car" stroke="none" stroke-width="1" fill="none" fill-rule="evenodd">
        <polygon id="Rectangle-2-Copy-90" fill="#D3D6DE" points="0 0 670 0 670 503 0 503"></polygon>
        <path d="M429.159404,260.46878 L451.846207,260.46878 L451.846205,230.675776 C451.849364,225.755324 448.449934,221.484445 443.700396,220.389037 L381.922826,206.465561 L379.576822,202.941586 L354.201854,164.825349 C352.233351,161.878879 348.917011,160.113895 345.336868,160.125092 L294.786768,160.125089 C282.27242,160.133904 270.932113,167.48731 265.747884,179.084537 L253.510265,205.115173 L219.154437,220.603257 L219.154146,249.042891 L232.610493,256.712549 C238.213345,243.406049 251.389306,234.062546 266.750536,234.062546 C283.520312,234.062546 297.685692,245.198113 302.236661,260.46878 L358.187154,260.46878 C362.738123,245.198113 376.903502,234.062546 393.673279,234.062546 C410.443056,234.062546 424.608435,245.198113 429.159404,260.46878 L429.159404,260.46878 Z M429.159404,281.593766 C424.608435,296.864433 410.443056,308 393.673279,308 C376.903502,308 362.738123,296.864433 358.187154,281.593766 L302.236661,281.593766 C297.685692,296.864433 283.520312,308 266.750536,308 C249.411155,308 234.856099,296.095122 230.834226,280.023674 L208.78951,267.458421 C202.07064,263.687195 197.937426,256.565086 198.000717,248.955662 L198.000717,206.961891 L237.683659,189.07227 L246.514764,170.291495 C255.014089,151.270475 273.914601,139.014799 294.779308,139.000105 L345.303589,139.000157 C355.944185,138.966724 365.893204,144.261676 371.808292,153.115451 L394.846845,187.722089 L448.40871,199.794027 C462.811179,203.11533 473.009469,215.927966 472.999993,230.682548 L472.999993,260.46878 C472.999993,272.135788 463.529119,281.593766 451.846203,281.593766 L429.159404,281.593766 L429.159404,281.593766 Z M266.750536,286.875013 C275.512723,286.875013 282.615879,279.781529 282.615879,271.031273 C282.615879,262.281017 275.512723,255.187533 266.750536,255.187533 C257.988349,255.187533 250.885193,262.281017 250.885193,271.031273 C250.885193,279.781529 257.988349,286.875013 266.750536,286.875013 Z M393.673279,286.875013 C402.435466,286.875013 409.538622,279.781529 409.538622,271.031273 C409.538622,262.281017 402.435466,255.187533 393.673279,255.187533 C384.911092,255.187533 377.807936,262.281017 377.807936,271.031273 C377.807936,279.781529 384.911092,286.875013 393.673279,286.875013 Z" id="Combined-Shape" fill="#B8BDCA" fill-rule="nonzero"></path>
    </g>
</svg>